<svg xmlns="http://www.w3.org/2000/svg" width="666" height="375" viewBox="0 0 666 375">
<g>
<path d="M 339.93 200.38 C336.59,202.37 333.32,204.00 332.67,204.00 C330.92,204.00 314.10,192.41 309.70,188.16 C304.09,182.75 302.80,179.58 302.32,170.00 C301.95,162.57 302.04,159.36 300.49,157.99 C299.32,156.95 297.21,156.96 293.24,156.99 C292.55,156.99 291.80,157.00 290.98,157.00 C274.97,157.00 278.59,155.04 297.00,153.75 C299.33,153.58 300.50,153.00 300.50,152.00 C300.50,150.84 298.57,150.33 292.00,149.77 C281.88,148.91 275.09,149.60 274.33,151.57 C274.03,152.36 272.80,153.00 271.59,153.00 C266.64,153.00 265.13,146.81 269.59,144.78 C271.87,143.74 272.39,143.87 273.91,145.88 C275.61,148.13 275.87,148.16 288.32,147.45 C299.77,146.80 301.00,146.55 301.00,144.86 C301.00,143.26 300.19,143.00 295.25,142.99 C287.83,142.97 281.89,141.98 282.58,140.87 C282.88,140.39 287.14,140.00 292.06,140.00 C300.93,140.00 301.00,139.98 301.00,137.50 C301.00,135.01 300.97,135.00 291.47,135.00 C284.03,135.00 281.81,135.32 281.38,136.46 C279.91,140.29 273.00,138.30 273.00,134.05 C273.00,130.28 278.53,128.52 281.00,131.50 C281.94,132.64 284.51,133.00 291.62,133.00 L 301.00 133.00 L 301.00 129.00 C301.00,126.68 301.48,125.00 302.13,125.00 C303.24,125.00 319.94,140.63 324.95,146.34 C326.31,147.90 328.69,149.82 330.23,150.62 C331.08,151.06 331.75,151.42 332.47,151.54 C335.25,152.01 338.65,148.81 355.94,132.55 L 356.52 132.00 L 364.50 124.50 L 365.11 133.00 L 375.01 133.00 C382.99,133.00 385.07,132.69 385.79,131.42 C386.36,130.39 387.70,129.95 389.59,130.17 C391.94,130.44 392.56,131.04 392.82,133.31 C393.16,136.28 391.59,139.00 389.53,139.00 C388.86,139.00 387.27,138.10 386.00,137.00 C384.05,135.31 382.26,135.00 374.35,135.00 C365.04,135.00 365.00,135.01 365.00,137.50 C365.00,139.99 365.03,140.00 374.50,140.00 C384.12,140.00 387.11,141.22 380.25,142.36 C378.19,142.70 373.91,142.98 370.75,142.99 C365.81,143.00 365.00,143.26 365.00,144.86 C365.00,146.55 366.23,146.80 377.60,147.45 C389.67,148.13 390.29,148.07 392.51,145.99 C394.10,144.50 395.49,144.02 396.91,144.47 C399.45,145.28 400.69,149.47 398.99,151.51 C397.43,153.39 393.11,153.45 392.40,151.61 C391.59,149.50 386.92,148.96 375.44,149.67 C366.18,150.23 365.00,150.51 365.00,152.15 C365.00,153.72 365.81,154.00 370.36,154.00 C377.61,154.00 385.00,155.08 385.00,156.14 C385.00,156.61 380.56,157.00 375.13,157.00 L 365.27 157.00 L 364.79 166.75 C364.29,177.05 362.62,181.91 357.84,186.98 L 355.50 189.46 L 354.94 171.48 C354.63,161.59 354.30,153.39 354.19,153.25 C354.09,153.11 352.92,153.00 351.61,153.00 C350.00,153.00 346.81,155.31 341.93,160.00 C337.92,163.85 334.16,167.00 333.57,167.00 C332.98,166.99 329.35,163.84 325.50,159.99 C319.60,154.10 318.03,153.04 315.50,153.25 L 312.50 153.50 L 312.22 165.06 L 311.94 176.62 L 315.87 180.26 C319.66,183.76 319.82,183.81 320.38,181.70 C320.71,180.49 320.98,177.14 320.99,174.25 C320.99,171.36 321.36,169.00 321.79,169.00 C322.23,169.00 324.57,171.02 327.00,173.50 C332.06,178.66 334.63,179.10 338.08,175.40 C339.41,173.97 341.74,171.92 343.25,170.83 L 346.00 168.86 L 346.00 196.77 ZM 423.00 250.00 C423.00,254.67 422.83,255.00 420.50,255.00 L 418.00 255.00 L 418.00 234.00 L 420.75 234.03 C423.05,234.05 424.06,235.04 426.90,240.00 C428.77,243.26 430.64,245.72 431.05,245.47 C431.47,245.21 433.21,242.52 434.91,239.50 C437.38,235.14 438.53,234.00 440.51,234.00 L 443.00 234.00 L 443.00 255.00 L 440.50 255.00 C438.17,255.00 438.00,254.67 438.00,250.00 C438.00,247.25 437.63,245.00 437.18,245.00 C436.72,245.00 435.46,246.69 434.38,248.75 C431.67,253.89 429.68,253.98 426.91,249.06 C425.66,246.82 424.26,245.00 423.82,245.00 C423.37,245.00 423.00,247.25 423.00,250.00 ZM 341.45 128.39 C337.15,132.58 333.16,135.96 332.57,135.91 C331.98,135.86 328.23,132.32 324.23,128.03 C317.48,120.80 317.13,120.20 319.23,119.63 C322.73,118.70 346.32,118.92 347.88,119.90 C348.93,120.57 347.38,122.61 341.45,128.39 ZM 414.00 253.05 C414.00,254.83 413.26,255.00 405.50,255.00 L 397.00 255.00 L 397.00 234.00 L 405.57 234.00 C413.20,234.00 414.11,234.19 413.81,235.75 C413.55,237.13 412.26,237.56 407.68,237.80 C402.85,238.05 401.93,238.39 402.20,239.80 C402.43,241.06 403.75,241.58 407.26,241.80 C411.13,242.05 412.00,242.45 412.00,244.00 C412.00,245.55 411.13,245.95 407.25,246.20 C403.27,246.45 402.50,246.82 402.50,248.50 C402.50,250.23 403.27,250.54 408.25,250.80 C413.18,251.06 414.00,251.38 414.00,253.05 ZM 371.12 253.39 C366.99,257.13 354.07,255.58 355.63,251.53 C356.02,250.52 357.75,250.18 361.83,250.31 C369.11,250.55 369.62,248.33 362.75,246.33 C359.90,245.49 357.38,243.99 356.44,242.55 C355.02,240.38 355.02,239.86 356.41,237.17 C357.60,234.87 358.88,234.03 361.96,233.51 C366.68,232.71 372.01,233.68 371.98,235.33 C371.95,237.65 370.50,238.92 368.97,237.96 C366.82,236.60 363.41,236.80 362.11,238.37 C360.62,240.17 362.18,241.45 367.65,242.91 C369.93,243.52 372.07,244.73 372.40,245.59 C373.52,248.52 373.01,251.68 371.12,253.39 ZM 327.44 254.59 C323.45,256.26 322.61,256.26 318.00,254.69 C312.16,252.70 313.47,250.50 320.50,250.50 C327.86,250.50 328.73,248.38 322.17,246.44 C310.09,242.87 311.47,233.46 324.06,233.53 C330.64,233.57 331.45,233.99 330.54,236.88 C329.99,238.61 329.55,238.75 327.52,237.83 C324.60,236.50 320.00,237.52 320.00,239.49 C320.00,240.39 322.09,241.55 325.50,242.54 C329.77,243.78 331.13,244.67 331.59,246.50 C332.53,250.24 331.08,253.07 327.44,254.59 ZM 346.01 251.75 C346.00,254.55 345.65,255.00 343.50,255.00 C341.27,255.00 341.00,254.59 341.00,251.22 C341.00,249.14 340.39,246.56 339.66,245.47 C338.92,244.39 337.07,241.36 335.56,238.75 L 332.81 234.00 L 335.81 234.00 C338.17,234.00 339.24,234.74 340.87,237.50 C342.00,239.43 343.36,241.00 343.88,241.00 C344.41,241.00 345.81,239.43 347.00,237.50 C348.51,235.06 349.90,234.00 351.58,234.00 C354.48,234.00 354.55,234.40 352.16,237.85 C351.15,239.31 350.01,241.18 349.62,242.00 C349.24,242.82 348.27,244.62 347.48,246.00 C346.68,247.38 346.02,249.96 346.01,251.75 ZM 387.00 246.56 C387.00,254.90 386.97,255.00 384.50,255.00 C382.03,255.00 382.00,254.90 382.00,246.50 L 382.00 238.00 L 378.50 238.00 C375.67,238.00 375.00,237.62 375.00,236.00 C375.00,234.49 375.67,234.00 377.75,233.99 C379.26,233.99 383.58,233.70 387.34,233.34 C394.14,232.70 394.18,232.71 393.84,235.10 C393.57,236.99 392.81,237.57 390.25,237.81 L 387.00 238.13 ZM 275.50 135.00 C276.59,136.76 279.00,136.07 279.00,134.00 C279.00,132.90 278.35,132.00 277.56,132.00 C275.79,132.00 274.66,133.65 275.50,135.00 ZM 387.50 135.00 C388.59,136.76 391.00,136.07 391.00,134.00 C391.00,132.90 390.35,132.00 389.56,132.00 C387.79,132.00 386.66,133.65 387.50,135.00 ZM 270.25 150.28 C271.94,150.89 273.00,150.18 273.00,148.44 C273.00,147.65 272.10,147.00 271.00,147.00 C268.82,147.00 268.23,149.56 270.25,150.28 ZM 394.64 150.31 C395.57,151.24 397.00,150.11 397.00,148.44 C397.00,147.65 396.33,147.00 395.50,147.00 C393.99,147.00 393.44,149.11 394.64,150.31 Z" fill="rgb(12,32,52)"/>
<path d="M 341.45 128.39 C347.38,122.61 348.93,120.57 347.88,119.90 C347.53,119.68 346.04,119.50 343.92,119.36 C347.47,119.19 347.97,118.83 347.25,118.11 C345.39,116.24 337.36,114.80 332.93,115.53 C330.24,115.97 328.77,115.63 326.93,114.13 C323.76,111.54 324.99,110.29 332.43,108.56 C338.93,107.05 340.95,107.36 346.30,110.71 C350.02,113.04 350.24,113.05 356.00,111.58 C361.10,110.27 362.53,110.25 366.50,111.45 C372.59,113.28 373.90,114.52 374.64,119.13 C374.98,121.26 375.65,123.00 376.13,123.00 C377.13,123.00 377.25,126.45 376.37,129.75 C375.87,131.60 375.07,132.00 371.80,132.00 L 367.83 132.00 L 368.16 127.75 C368.46,123.97 368.28,123.54 366.50,123.83 C365.85,123.94 365.11,124.21 364.50,124.53 L 364.50 124.50 L 364.43 124.56 C364.04,124.77 363.71,125.00 363.50,125.23 C363.16,125.60 363.00,125.81 363.05,125.86 L 356.52 132.00 L 355.94 132.55 C340.47,147.10 336.12,151.19 333.38,151.55 C332.95,151.19 331.98,150.58 330.70,149.91 C327.26,148.09 324.66,144.49 325.61,142.86 C325.81,142.51 324.30,141.44 322.24,140.48 C320.18,139.53 317.60,138.03 316.50,137.16 C315.40,136.28 317.65,138.74 321.50,142.62 C325.00,146.15 328.67,149.52 330.13,150.57 C328.59,149.74 326.29,147.86 324.95,146.34 C319.94,140.63 303.24,125.00 302.13,125.00 C301.48,125.00 301.00,126.68 301.00,129.00 L 301.00 128.83 C301.00,124.59 299.87,124.17 299.42,128.25 C299.28,129.49 299.13,130.84 299.08,131.25 C299.04,131.66 296.75,132.00 294.00,132.00 C289.21,132.00 289.00,131.88 289.01,129.25 C289.03,125.27 293.24,113.82 295.00,112.96 C295.83,112.56 298.51,111.77 300.96,111.20 C306.25,109.97 309.14,111.12 313.60,116.20 L 316.50 119.50 L 319.92 119.50 C319.64,119.54 319.41,119.59 319.23,119.63 C317.13,120.20 317.48,120.80 324.23,128.03 C328.23,132.32 331.98,135.86 332.57,135.91 C333.16,135.96 337.15,132.58 341.45,128.39 ZM 244.65 248.25 C243.09,250.86 241.67,253.00 241.49,253.00 C241.31,253.00 239.74,251.20 238.00,249.00 C235.12,245.37 232.82,243.83 233.12,245.75 C233.18,246.16 233.18,247.74 233.12,249.25 C233.03,251.31 232.49,252.00 230.96,252.00 C229.05,252.00 228.94,251.48 229.21,244.25 C229.49,236.73 229.57,236.50 232.00,236.50 C233.89,236.50 235.24,237.65 237.50,241.20 C239.15,243.78 240.74,245.92 241.04,245.95 C241.34,245.98 242.92,243.76 244.54,241.02 C247.60,235.87 251.14,234.32 252.39,237.58 C252.98,239.10 252.29,249.05 251.40,251.86 C250.62,254.35 248.13,251.11 247.81,247.17 L 247.50 243.50 ZM 290.98 157.00 C291.80,157.00 292.55,156.99 293.24,156.99 C295.44,156.97 297.07,156.96 298.28,157.13 L 298.23 157.14 C295.68,157.26 295.66,157.30 297.89,157.72 C300.20,158.16 300.25,158.39 299.64,164.84 C299.30,168.50 299.00,173.98 298.99,177.00 C298.98,180.02 298.54,183.18 298.02,184.00 C297.20,185.29 296.81,185.23 295.19,183.50 C292.66,180.80 290.19,173.71 289.40,166.87 C288.84,161.97 289.03,160.97 290.88,159.12 L 293.00 157.00 L 290.98 157.00 ZM 287.00 251.06 C287.00,252.13 283.67,252.34 282.67,251.33 C282.30,250.97 282.00,247.42 282.00,243.46 C282.00,235.25 283.03,233.68 288.11,234.18 C291.92,234.56 293.14,236.70 289.81,237.17 C288.02,237.43 287.43,238.23 287.19,240.76 C286.83,244.45 288.45,245.61 292.55,244.58 C295.57,243.82 296.73,241.40 295.23,239.00 C294.47,237.78 294.46,236.94 295.19,236.21 C296.99,234.41 298.93,236.04 300.09,240.32 C301.12,244.15 301.02,244.59 298.69,246.59 C297.31,247.78 294.12,249.06 291.59,249.43 C289.07,249.81 287.00,250.54 287.00,251.06 ZM 271.43 251.43 C270.56,252.29 269.31,253.00 268.65,253.00 C267.04,253.00 263.00,250.12 263.00,248.97 C263.00,248.47 261.82,245.57 260.39,242.54 C258.95,239.51 258.05,236.31 258.39,235.44 C259.60,232.28 262.37,234.52 264.93,240.74 C266.34,244.18 267.75,246.99 268.06,246.99 C268.37,247.00 269.72,244.64 271.06,241.75 C272.40,238.86 273.95,236.73 274.50,237.00 C275.05,237.27 275.40,237.95 275.28,238.50 C275.16,239.05 274.80,240.85 274.47,242.50 C274.15,244.15 273.68,246.48 273.44,247.68 C273.20,248.88 272.29,250.57 271.43,251.43 ZM 373.26 171.25 C371.07,173.69 370.45,173.48 368.61,169.60 C366.91,166.02 366.60,163.21 367.61,160.58 C368.38,158.57 373.34,158.50 374.99,160.49 C376.53,162.34 375.49,168.76 373.26,171.25 ZM 335.56 210.53 C332.94,212.51 331.72,212.38 332.89,210.25 C334.04,208.15 344.77,202.44 345.74,203.41 C346.60,204.27 341.01,208.90 339.00,209.00 C338.17,209.03 336.63,209.72 335.56,210.53 ZM 286.64 149.45 C288.30,149.50 290.09,149.61 292.00,149.77 C298.57,150.33 300.50,150.84 300.50,152.00 C300.50,153.00 299.33,153.58 297.00,153.75 C288.67,154.33 283.37,155.05 281.54,155.67 C282.23,155.28 283.87,154.87 286.50,154.54 C290.89,153.99 292.00,153.49 292.00,152.04 C292.00,150.72 289.64,149.84 286.64,149.45 ZM 298.72 139.87 C297.40,140.00 295.33,140.00 292.06,140.00 C287.14,140.00 282.88,140.39 282.58,140.87 C282.88,140.39 286.35,139.96 290.31,139.90 C294.70,139.84 296.56,139.54 295.07,139.12 C290.87,137.95 291.39,136.00 295.92,136.00 C298.77,136.00 300.00,136.43 300.00,137.42 C300.00,138.20 299.44,139.06 298.75,139.34 C298.16,139.58 298.16,139.78 298.72,139.87 ZM 355.96 198.45 C357.08,199.80 356.77,200.00 353.54,200.00 C351.02,200.00 349.97,199.60 350.24,198.75 C350.86,196.88 354.50,196.69 355.96,198.45 ZM 373.00 137.50 C373.00,139.01 370.89,139.56 369.69,138.36 C368.76,137.43 369.89,136.00 371.56,136.00 C372.35,136.00 373.00,136.68 373.00,137.50 ZM 298.00 145.00 C298.00,145.55 296.88,146.00 295.50,146.00 C294.12,146.00 293.00,145.55 293.00,145.00 C293.00,144.45 294.12,144.00 295.50,144.00 C296.88,144.00 298.00,144.45 298.00,145.00 ZM 365.00 131.41 L 364.59 125.70 C364.88,126.14 365.00,127.17 365.00,128.94 ZM 281.95 156.58 C283.44,156.84 286.41,157.00 290.98,157.00 L 287.00 157.00 C284.54,157.00 282.86,156.84 281.95,156.58 ZM 301.45 159.61 C302.03,161.47 302.06,164.63 302.32,170.00 C302.06,164.62 301.86,161.46 301.45,159.61 ZM 300.70 139.20 C300.90,138.80 301.00,138.24 301.00,137.50 C301.00,138.29 300.99,138.83 300.70,139.20 ZM 274.32 151.60 C274.05,152.32 272.95,152.92 271.82,152.99 C272.95,152.92 274.05,152.31 274.33,151.57 C274.37,151.47 274.43,151.38 274.49,151.28 C274.42,151.39 274.37,151.49 274.32,151.60 Z" fill="rgb(45,166,224)"/>
<path d="M 339.93 200.38 L 346.00 196.77 L 346.00 188.51 C346.24,192.94 346.60,196.00 346.95,196.00 C347.44,196.00 349.23,194.83 350.92,193.41 L 354.00 190.82 L 354.00 153.17 C354.10,153.19 354.17,153.22 354.19,153.25 C354.30,153.39 354.63,161.59 354.94,171.48 L 355.50 189.46 L 357.84 186.98 C362.62,181.91 364.29,177.05 364.79,166.75 L 365.27 157.00 L 375.13 157.00 C380.56,157.00 385.00,156.61 385.00,156.14 C385.00,155.08 377.61,154.00 370.36,154.00 C365.81,154.00 365.00,153.72 365.00,152.15 C365.00,150.51 366.18,150.23 375.44,149.67 C385.62,149.04 390.45,149.39 391.98,150.96 C391.18,150.25 389.28,150.00 385.39,150.00 C379.74,150.00 379.00,150.22 379.00,151.94 C379.00,153.38 379.81,153.95 382.17,154.19 C386.69,154.63 387.12,157.00 382.69,157.00 L 379.21 157.00 L 378.82 168.75 C378.47,179.53 378.17,181.05 375.21,187.16 C370.52,196.83 360.50,205.88 346.26,213.28 C340.20,216.42 334.18,218.99 332.87,218.97 C331.57,218.95 326.90,217.04 322.50,214.71 C304.75,205.32 295.98,197.46 290.72,186.22 C287.96,180.31 287.56,178.32 287.18,168.29 L 286.75 157.00 L 283.87 157.00 C282.78,157.00 281.99,156.83 281.52,156.49 C281.65,156.52 281.79,156.55 281.95,156.58 C282.86,156.84 284.54,157.00 287.00,157.00 L 293.00 157.00 L 290.88 159.12 C289.03,160.97 288.84,161.97 289.40,166.87 C290.19,173.71 292.66,180.80 295.19,183.50 C296.81,185.23 297.20,185.29 298.02,184.00 C298.54,183.18 298.98,180.02 298.99,177.00 C299.00,173.98 299.30,168.50 299.64,164.84 C300.25,158.39 300.20,158.16 297.89,157.72 C295.66,157.30 295.68,157.26 298.23,157.14 L 298.28 157.13 C299.26,157.27 299.97,157.53 300.49,157.99 C300.92,158.37 301.23,158.89 301.45,159.61 C301.86,161.46 302.06,164.62 302.32,170.00 C302.80,179.58 304.09,182.75 309.70,188.16 C314.10,192.41 330.92,204.00 332.67,204.00 C333.32,204.00 336.59,202.37 339.93,200.38 ZM 365.00 131.41 L 365.00 128.94 C365.00,127.17 364.88,126.14 364.59,125.70 L 364.50 124.53 C365.11,124.21 365.85,123.94 366.50,123.83 C368.28,123.54 368.46,123.97 368.16,127.75 L 367.83 132.00 L 371.80 132.00 C375.07,132.00 375.87,131.60 376.37,129.75 C377.25,126.45 377.13,123.00 376.13,123.00 C375.65,123.00 374.98,121.26 374.64,119.13 C373.90,114.52 372.59,113.28 366.50,111.45 C362.53,110.25 361.10,110.27 356.00,111.58 C350.24,113.05 350.02,113.04 346.30,110.71 C340.95,107.36 338.93,107.05 332.43,108.56 C324.99,110.29 323.76,111.54 326.93,114.13 C328.77,115.63 330.24,115.97 332.93,115.53 C337.36,114.80 345.39,116.24 347.25,118.11 C347.97,118.83 347.47,119.19 343.92,119.36 C337.14,118.91 323.85,118.91 319.92,119.50 L 316.50 119.50 L 313.60 116.20 C309.14,111.12 306.25,109.97 300.96,111.20 C298.51,111.77 295.83,112.56 295.00,112.96 C293.24,113.82 289.03,125.27 289.01,129.25 C289.00,131.88 289.21,132.00 294.00,132.00 C296.75,132.00 299.04,131.66 299.08,131.25 C299.13,130.84 299.28,129.49 299.42,128.25 C299.87,124.17 301.00,124.59 301.00,128.83 L 301.00 133.00 L 291.62 133.00 C289.24,133.00 287.38,132.96 285.90,132.86 C286.97,132.45 287.00,130.78 287.00,124.12 C287.00,113.80 287.09,113.69 298.00,110.27 C311.47,106.04 318.44,105.00 333.14,105.00 C348.30,105.00 360.04,107.05 373.28,112.00 L 379.00 114.14 L 379.00 132.96 C377.87,132.99 376.55,133.00 375.01,133.00 L 365.11 133.00 ZM 395.75 144.31 C394.71,144.36 393.66,144.91 392.51,145.99 C390.29,148.07 389.67,148.13 377.60,147.45 C366.23,146.80 365.00,146.55 365.00,144.86 C365.00,143.26 365.81,143.00 370.75,142.99 C373.91,142.98 378.19,142.70 380.25,142.36 C387.11,141.22 384.12,140.00 374.50,140.00 C365.03,140.00 365.00,139.99 365.00,137.50 C365.00,135.01 365.04,135.00 374.35,135.00 C377.75,135.00 380.02,135.06 381.66,135.26 C380.37,135.38 379.40,136.20 379.19,137.68 C378.94,139.41 379.45,139.92 381.69,140.18 C385.30,140.59 385.34,142.40 381.75,142.82 C379.81,143.04 379.00,143.70 379.00,145.07 C379.00,146.75 379.73,147.00 384.67,147.00 C388.49,147.00 390.93,146.47 392.13,145.38 C393.24,144.38 394.53,144.10 395.75,144.31 ZM 373.26 171.25 C375.49,168.76 376.53,162.34 374.99,160.49 C373.34,158.50 368.38,158.57 367.61,160.58 C366.60,163.21 366.91,166.02 368.61,169.60 C370.45,173.48 371.07,173.69 373.26,171.25 ZM 288.00 241.44 C288.00,243.47 288.15,244.37 288.83,244.75 C287.48,244.30 286.97,242.99 287.19,240.76 C287.43,238.23 288.02,237.43 289.81,237.17 C293.14,236.70 291.92,234.56 288.11,234.18 C283.03,233.68 282.00,235.25 282.00,243.46 C282.00,247.42 282.30,250.97 282.67,251.33 C283.67,252.34 287.00,252.13 287.00,251.06 C287.00,250.86 287.30,250.64 287.81,250.41 C287.15,250.85 287.00,251.48 287.00,252.56 C287.00,254.50 286.48,255.00 284.50,255.00 L 282.00 255.00 L 282.00 233.00 L 288.87 233.00 C297.68,233.00 301.00,235.19 301.00,241.00 C301.00,241.85 300.90,242.64 300.71,243.37 C300.68,242.64 300.46,241.70 300.09,240.32 C298.93,236.04 296.99,234.41 295.19,236.21 C294.46,236.94 294.47,237.78 295.23,239.00 C296.73,241.40 295.57,243.82 292.55,244.58 C292.49,244.59 292.44,244.60 292.39,244.62 C293.20,244.35 294.00,243.98 294.56,243.56 C297.24,241.57 295.35,238.61 291.15,238.19 C288.15,237.89 288.00,238.04 288.00,241.44 ZM 272.88 144.68 C273.20,144.85 273.52,145.06 273.82,145.34 C275.08,146.48 277.45,147.00 281.33,147.00 C286.33,147.00 287.00,146.76 287.00,145.00 C287.00,143.52 286.33,143.00 284.42,143.00 C282.36,143.00 281.81,142.01 282.56,141.18 C283.03,142.16 288.53,142.98 295.25,142.99 C300.19,143.00 301.00,143.26 301.00,144.86 C301.00,146.55 299.77,146.80 288.32,147.45 C275.87,148.16 275.61,148.13 273.91,145.88 C273.52,145.36 273.19,144.96 272.88,144.68 ZM 271.43 251.43 C272.29,250.57 273.20,248.88 273.44,247.68 C273.68,246.48 274.15,244.15 274.47,242.50 C274.80,240.85 275.16,239.05 275.28,238.50 C275.40,237.95 275.05,237.27 274.50,237.00 C273.95,236.73 272.40,238.86 271.06,241.75 C270.62,242.70 270.18,243.58 269.77,244.35 C270.00,243.86 270.23,243.32 270.45,242.75 C274.02,233.65 274.44,233.00 276.74,233.00 C277.98,233.00 279.00,233.46 279.00,234.02 C279.00,234.57 277.11,239.52 274.80,245.02 C270.89,254.31 270.40,255.00 267.77,255.00 C265.66,255.00 264.70,254.35 263.98,252.43 C263.44,251.03 263.00,249.48 263.00,248.98 C263.01,250.13 267.04,253.00 268.65,253.00 C269.31,253.00 270.56,252.29 271.43,251.43 ZM 298.72 139.87 C298.16,139.78 298.16,139.58 298.75,139.34 C299.44,139.06 300.00,138.20 300.00,137.42 C300.00,136.43 298.77,136.00 295.92,136.00 C291.39,136.00 290.87,137.95 295.07,139.12 C296.56,139.54 294.70,139.84 290.31,139.90 C287.68,139.94 285.26,140.14 283.84,140.42 C284.15,140.31 284.50,140.23 284.89,140.17 C286.53,139.93 287.04,139.28 286.81,137.68 C286.59,136.16 285.64,135.32 284.44,135.22 C285.98,135.06 288.23,135.00 291.47,135.00 C300.97,135.00 301.00,135.01 301.00,137.50 C301.00,138.24 300.90,138.80 300.70,139.20 C300.41,139.56 299.84,139.76 298.72,139.87 ZM 247.50 243.50 L 247.81 247.17 C248.13,251.11 250.62,254.35 251.40,251.86 C252.29,249.05 252.98,239.10 252.39,237.58 C251.18,234.43 247.85,235.76 244.87,240.49 C245.33,239.63 245.79,238.71 246.24,237.75 C247.95,234.15 249.03,233.00 250.74,233.00 C252.95,233.00 253.00,233.25 253.00,244.00 L 253.00 255.00 L 250.55 255.00 C248.27,255.00 248.08,254.60 247.80,249.25 L 247.50 243.50 ZM 335.56 210.53 C336.63,209.72 338.17,209.03 339.00,209.00 C341.01,208.90 346.60,204.27 345.74,203.41 C344.77,202.44 334.04,208.15 332.89,210.25 C331.72,212.38 332.94,212.51 335.56,210.53 ZM 233.12 250.75 C233.02,254.29 232.67,255.00 231.00,255.00 C229.12,255.00 229.00,254.33 229.00,244.00 C229.00,233.80 229.14,233.00 230.93,233.00 C232.23,233.00 234.07,235.04 236.59,239.25 C237.88,241.40 239.08,243.37 239.84,244.61 C239.19,243.75 238.35,242.53 237.50,241.20 C235.24,237.65 233.89,236.50 232.00,236.50 C229.57,236.50 229.49,236.73 229.21,244.25 C228.94,251.48 229.05,252.00 230.96,252.00 C232.49,252.00 233.03,251.31 233.12,249.25 C233.15,248.57 233.16,247.87 233.17,247.27 C233.17,248.21 233.15,249.47 233.12,250.75 ZM 286.64 149.45 C289.64,149.84 292.00,150.72 292.00,152.04 C292.00,153.49 290.89,153.99 286.50,154.54 C283.87,154.87 282.23,155.28 281.54,155.67 C281.34,155.74 281.17,155.81 281.05,155.88 C281.02,155.76 281.00,155.63 281.00,155.50 C286.33,154.00 287.00,153.56 287.00,152.00 C287.00,150.22 286.33,150.00 280.97,150.00 C278.31,150.00 276.62,150.14 275.60,150.49 C277.51,149.64 281.39,149.27 286.64,149.45 ZM 330.70 149.91 C331.98,150.58 332.95,151.19 333.38,151.55 C333.06,151.60 332.76,151.59 332.47,151.54 C331.75,151.42 331.08,151.06 330.23,150.62 C330.19,150.60 330.16,150.58 330.13,150.57 C328.67,149.52 325.00,146.15 321.50,142.62 C317.65,138.74 315.40,136.28 316.50,137.16 C317.60,138.03 320.18,139.53 322.24,140.48 C324.30,141.44 325.81,142.51 325.61,142.86 C324.66,144.49 327.26,148.09 330.70,149.91 ZM 268.10 246.98 C268.08,246.99 268.07,246.99 268.06,246.99 C267.75,246.99 266.34,244.18 264.93,240.74 C262.37,234.52 259.60,232.28 258.39,235.44 C258.09,236.22 258.78,238.86 259.96,241.59 C259.37,240.47 258.82,239.52 258.41,239.00 C257.76,238.18 256.93,236.49 256.55,235.25 C255.95,233.27 256.22,233.00 258.81,233.00 C261.52,233.00 261.99,233.57 264.63,240.00 C266.15,243.71 267.68,246.77 268.10,246.98 ZM 355.96 198.45 C354.50,196.69 350.86,196.88 350.24,198.75 C349.97,199.60 351.02,200.00 353.54,200.00 C356.77,200.00 357.08,199.80 355.96,198.45 ZM 373.00 137.50 C373.00,136.68 372.35,136.00 371.56,136.00 C369.89,136.00 368.76,137.43 369.69,138.36 C370.89,139.56 373.00,139.01 373.00,137.50 ZM 298.00 145.00 C298.00,144.45 296.88,144.00 295.50,144.00 C294.12,144.00 293.00,144.45 293.00,145.00 C293.00,145.55 294.12,146.00 295.50,146.00 C296.88,146.00 298.00,145.55 298.00,145.00 ZM 279.09 138.40 C278.51,138.77 277.97,139.00 277.62,139.00 C276.89,139.00 275.95,138.41 275.10,137.59 C276.30,138.37 277.82,138.69 279.09,138.40 ZM 338.61 174.85 C338.42,175.04 338.24,175.23 338.08,175.40 C336.65,176.93 335.38,177.75 334.02,177.83 C335.08,177.41 336.82,176.28 338.61,174.85 ZM 291.75 249.41 C294.25,249.00 297.34,247.75 298.69,246.59 C298.88,246.42 299.06,246.27 299.22,246.12 C297.72,247.78 295.26,248.85 291.75,249.41 ZM 345.51 169.22 L 343.25 170.83 C343.11,170.93 342.97,171.04 342.82,171.15 L 345.50 168.74 ZM 398.99 151.51 C400.05,150.23 399.97,148.11 399.13,146.50 C400.14,147.95 400.36,149.86 398.99,151.51 ZM 233.13 245.18 C233.41,244.26 235.49,245.83 238.00,249.00 C238.14,249.17 238.27,249.34 238.41,249.51 L 238.07 249.12 C235.21,245.80 233.39,244.37 233.13,245.18 ZM 244.65 248.25 L 247.50 243.50 L 241.65 253.28 L 241.27 252.83 C241.38,252.94 241.46,253.00 241.49,253.00 C241.67,253.00 243.09,250.86 244.65,248.25 ZM 270.38 152.87 C269.55,152.71 268.76,152.36 268.20,151.80 C267.27,150.87 266.90,149.78 266.94,148.73 C266.97,150.57 268.23,152.37 270.38,152.87 ZM 363.50 125.23 C363.71,125.00 364.04,124.77 364.43,124.56 L 363.05 125.86 C363.00,125.81 363.16,125.60 363.50,125.23 ZM 282.92 135.47 C282.41,135.66 281.90,135.97 281.40,136.39 C281.59,135.98 282.04,135.68 282.92,135.47 ZM 273.00 133.94 C273.00,133.92 273.00,133.89 273.00,133.87 C273.00,132.25 274.12,131.03 275.58,130.43 C274.15,131.05 273.05,132.30 273.00,133.94 ZM 268.54 145.41 C269.14,144.87 269.87,144.48 270.65,144.34 C270.34,144.45 269.99,144.59 269.59,144.78 C269.19,144.96 268.84,145.17 268.54,145.41 ZM 330.96 176.88 C329.80,176.16 328.51,175.04 327.00,173.50 C328.32,174.84 329.75,176.05 330.96,176.88 ZM 395.55 152.95 C396.86,152.89 398.24,152.41 398.99,151.51 C398.23,152.43 396.86,152.91 395.55,152.95 ZM 385.22 132.03 C385.47,131.85 385.66,131.64 385.79,131.42 C385.65,131.66 385.47,131.86 385.22,132.03 ZM 241.19 245.87 C241.15,245.91 241.11,245.93 241.08,245.94 C241.12,245.92 241.16,245.90 241.19,245.87 Z" fill="rgb(83,131,201)"/>
<path d="M 0.00 187.50 L 0.00 0.00 L 333.00 0.00 L 666.00 0.00 L 666.00 187.50 L 666.00 375.00 L 333.00 375.00 L 0.00 375.00 L 0.00 187.50 ZM 327.44 254.59 C331.08,253.07 332.53,250.24 331.59,246.50 C331.13,244.67 329.77,243.78 325.50,242.54 C322.09,241.55 320.00,240.39 320.00,239.49 C320.00,237.52 324.60,236.50 327.52,237.83 C329.55,238.75 329.99,238.61 330.54,236.88 C331.45,233.99 330.64,233.57 324.06,233.53 C311.47,233.46 310.09,242.87 322.17,246.44 C328.73,248.38 327.86,250.50 320.50,250.50 C313.47,250.50 312.16,252.70 318.00,254.69 C322.61,256.26 323.45,256.26 327.44,254.59 ZM 371.12 253.39 C373.01,251.68 373.52,248.52 372.40,245.59 C372.07,244.73 369.93,243.52 367.65,242.91 C362.18,241.45 360.62,240.17 362.11,238.37 C363.41,236.80 366.82,236.60 368.97,237.96 C370.50,238.92 371.95,237.65 371.98,235.33 C372.01,233.68 366.68,232.71 361.96,233.51 C358.88,234.03 357.60,234.87 356.41,237.17 C355.02,239.86 355.02,240.38 356.44,242.55 C357.38,243.99 359.90,245.49 362.75,246.33 C369.62,248.33 369.11,250.55 361.83,250.31 C357.75,250.18 356.02,250.52 355.63,251.53 C354.07,255.58 366.99,257.13 371.12,253.39 ZM 233.12 250.75 C233.18,248.41 233.18,246.16 233.12,245.75 C232.84,243.96 234.75,245.27 238.07,249.12 L 241.65 253.28 L 244.57 248.39 L 247.50 243.50 L 247.80 249.25 C248.08,254.60 248.27,255.00 250.55,255.00 L 253.00 255.00 L 253.00 244.00 C253.00,233.25 252.95,233.00 250.74,233.00 C249.03,233.00 247.95,234.15 246.24,237.75 C243.86,242.79 241.25,246.64 240.68,245.93 C240.49,245.69 238.65,242.69 236.59,239.25 C234.07,235.04 232.23,233.00 230.93,233.00 C229.14,233.00 229.00,233.80 229.00,244.00 C229.00,254.33 229.12,255.00 231.00,255.00 C232.67,255.00 233.02,254.29 233.12,250.75 ZM 274.80 245.02 C277.11,239.52 279.00,234.57 279.00,234.02 C279.00,233.46 277.98,233.00 276.74,233.00 C274.44,233.00 274.02,233.65 270.45,242.75 C269.53,245.09 268.49,247.00 268.14,247.00 C267.79,246.99 266.21,243.84 264.63,240.00 C261.99,233.57 261.52,233.00 258.81,233.00 C256.22,233.00 255.95,233.27 256.55,235.25 C256.93,236.49 257.76,238.18 258.41,239.00 C259.82,240.81 263.00,247.71 263.00,248.97 C263.00,249.46 263.44,251.02 263.98,252.43 C264.70,254.35 265.66,255.00 267.77,255.00 C270.40,255.00 270.89,254.31 274.80,245.02 ZM 287.00 252.56 C287.00,250.44 287.58,250.04 291.51,249.45 C297.99,248.47 301.00,245.79 301.00,241.00 C301.00,235.19 297.68,233.00 288.87,233.00 L 282.00 233.00 L 282.00 244.00 L 282.00 255.00 L 284.50 255.00 C286.48,255.00 287.00,254.50 287.00,252.56 ZM 346.01 251.75 C346.02,249.96 346.68,247.38 347.48,246.00 C348.27,244.62 349.24,242.82 349.62,242.00 C350.01,241.18 351.15,239.31 352.16,237.85 C354.55,234.40 354.48,234.00 351.58,234.00 C349.90,234.00 348.51,235.06 347.00,237.50 C345.81,239.43 344.41,241.00 343.88,241.00 C343.36,241.00 342.00,239.43 340.87,237.50 C339.24,234.74 338.17,234.00 335.81,234.00 L 332.81 234.00 L 335.56 238.75 C337.07,241.36 338.92,244.39 339.66,245.47 C340.39,246.56 341.00,249.14 341.00,251.22 C341.00,254.59 341.27,255.00 343.50,255.00 C345.65,255.00 346.00,254.55 346.01,251.75 ZM 387.00 246.56 L 387.00 238.13 L 390.25 237.81 C392.81,237.57 393.57,236.99 393.84,235.10 C394.18,232.71 394.14,232.70 387.34,233.34 C383.58,233.70 379.26,233.99 377.75,233.99 C375.67,234.00 375.00,234.49 375.00,236.00 C375.00,237.62 375.67,238.00 378.50,238.00 L 382.00 238.00 L 382.00 246.50 C382.00,254.90 382.03,255.00 384.50,255.00 C386.97,255.00 387.00,254.90 387.00,246.56 ZM 414.00 253.05 C414.00,251.38 413.18,251.06 408.25,250.80 C403.27,250.54 402.50,250.23 402.50,248.50 C402.50,246.82 403.27,246.45 407.25,246.20 C411.13,245.95 412.00,245.55 412.00,244.00 C412.00,242.45 411.13,242.05 407.26,241.80 C403.75,241.58 402.43,241.06 402.20,239.80 C401.93,238.39 402.85,238.05 407.68,237.80 C412.26,237.56 413.55,237.13 413.81,235.75 C414.11,234.19 413.20,234.00 405.57,234.00 L 397.00 234.00 L 397.00 244.50 L 397.00 255.00 L 405.50 255.00 C413.26,255.00 414.00,254.83 414.00,253.05 ZM 423.00 250.00 C423.00,247.25 423.37,245.00 423.82,245.00 C424.26,245.00 425.66,246.82 426.91,249.06 C429.68,253.98 431.67,253.89 434.38,248.75 C435.46,246.69 436.72,245.00 437.18,245.00 C437.63,245.00 438.00,247.25 438.00,250.00 C438.00,254.67 438.17,255.00 440.50,255.00 L 443.00 255.00 L 443.00 244.50 L 443.00 234.00 L 440.51 234.00 C438.53,234.00 437.38,235.14 434.91,239.50 C433.21,242.52 431.47,245.21 431.05,245.47 C430.64,245.72 428.77,243.26 426.90,240.00 C424.06,235.04 423.05,234.05 420.75,234.03 L 418.00 234.00 L 418.00 244.50 L 418.00 255.00 L 420.50 255.00 C422.83,255.00 423.00,254.67 423.00,250.00 ZM 346.26 213.28 C360.50,205.88 370.52,196.83 375.21,187.16 C378.17,181.05 378.47,179.53 378.82,168.75 L 379.21 157.00 L 382.69 157.00 C387.12,157.00 386.69,154.63 382.17,154.19 C379.81,153.95 379.00,153.38 379.00,151.94 C379.00,150.22 379.74,150.00 385.39,150.00 C390.15,150.00 391.93,150.38 392.36,151.50 C393.10,153.43 397.39,153.44 398.99,151.51 C402.37,147.44 396.08,141.81 392.13,145.38 C390.93,146.47 388.49,147.00 384.67,147.00 C379.73,147.00 379.00,146.75 379.00,145.07 C379.00,143.70 379.81,143.04 381.75,142.82 C385.34,142.40 385.30,140.59 381.69,140.18 C379.45,139.92 378.94,139.41 379.19,137.68 C379.61,134.76 383.00,134.39 385.95,136.96 C387.25,138.08 388.86,139.00 389.53,139.00 C391.59,139.00 393.16,136.28 392.82,133.31 C392.56,131.04 391.94,130.44 389.59,130.17 C387.70,129.95 386.36,130.39 385.79,131.42 C385.29,132.30 383.60,133.00 381.95,133.00 L 379.00 133.00 L 379.00 123.57 L 379.00 114.14 L 373.28 112.00 C360.04,107.05 348.30,105.00 333.14,105.00 C318.44,105.00 311.47,106.04 298.00,110.27 C287.09,113.69 287.00,113.80 287.00,124.12 C287.00,132.80 286.95,133.00 284.62,133.00 C283.31,133.00 281.68,132.32 281.00,131.50 C278.60,128.60 273.00,130.26 273.00,133.87 C273.00,135.76 275.92,139.00 277.62,139.00 C278.33,139.00 279.80,138.06 280.87,136.91 C283.26,134.35 286.39,134.76 286.81,137.68 C287.04,139.28 286.53,139.93 284.89,140.17 C281.64,140.65 281.25,143.00 284.42,143.00 C286.33,143.00 287.00,143.52 287.00,145.00 C287.00,146.76 286.33,147.00 281.33,147.00 C277.45,147.00 275.08,146.48 273.82,145.34 C269.90,141.79 264.44,148.04 268.20,151.80 C269.88,153.48 273.67,153.30 274.36,151.50 C274.79,150.40 276.53,150.00 280.97,150.00 C286.33,150.00 287.00,150.22 287.00,152.00 C287.00,153.56 286.33,154.00 284.00,154.00 C282.00,154.00 281.00,154.50 281.00,155.50 C281.00,156.49 281.99,157.00 283.87,157.00 L 286.75 157.00 L 287.18 168.29 C287.56,178.32 287.96,180.31 290.72,186.22 C295.98,197.46 304.75,205.32 322.50,214.71 C326.90,217.04 331.57,218.95 332.87,218.97 C334.18,218.99 340.20,216.42 346.26,213.28 ZM 288.00 241.44 C288.00,238.04 288.15,237.89 291.15,238.19 C295.35,238.61 297.24,241.57 294.56,243.56 C293.49,244.35 291.58,245.00 290.31,245.00 C288.33,245.00 288.00,244.49 288.00,241.44 ZM 345.78 182.37 L 345.50 168.74 L 340.35 173.37 C337.52,175.92 334.35,178.00 333.31,178.00 C332.27,178.00 329.43,175.98 327.00,173.50 C324.57,171.02 322.23,169.00 321.79,169.00 C321.36,169.00 320.99,171.36 320.99,174.25 C320.98,177.14 320.71,180.49 320.38,181.70 C319.82,183.81 319.66,183.76 315.87,180.26 L 311.94 176.62 L 312.22 165.06 L 312.50 153.50 L 315.50 153.25 C318.03,153.04 319.60,154.10 325.50,159.99 C329.35,163.84 332.98,166.99 333.57,167.00 C334.16,167.00 337.92,163.85 341.93,160.00 C346.81,155.31 350.00,153.00 351.61,153.00 L 354.00 153.00 L 354.00 171.91 L 354.00 190.82 L 350.92 193.41 C349.23,194.83 347.44,196.00 346.95,196.00 C346.46,196.00 345.93,189.87 345.78,182.37 ZM 270.25 150.28 C268.23,149.56 268.82,147.00 271.00,147.00 C272.10,147.00 273.00,147.65 273.00,148.44 C273.00,150.18 271.94,150.89 270.25,150.28 ZM 394.64 150.31 C393.44,149.11 393.99,147.00 395.50,147.00 C396.33,147.00 397.00,147.65 397.00,148.44 C397.00,150.11 395.57,151.24 394.64,150.31 ZM 275.50 135.00 C274.66,133.65 275.79,132.00 277.56,132.00 C278.35,132.00 279.00,132.90 279.00,134.00 C279.00,136.07 276.59,136.76 275.50,135.00 ZM 387.50 135.00 C386.66,133.65 387.79,132.00 389.56,132.00 C390.35,132.00 391.00,132.90 391.00,134.00 C391.00,136.07 388.59,136.76 387.50,135.00 Z" fill="rgb(254,254,254)"/>
</g>
</svg>