<?xml version="1.0" standalone="no"?>
<!DOCTYPE svg PUBLIC "-//W3C//DTD SVG 20010904//EN"
 "http://www.w3.org/TR/2001/REC-SVG-20010904/DTD/svg10.dtd">
<svg version="1.0" xmlns="http://www.w3.org/2000/svg"
 width="500.000000pt" height="500.000000pt" viewBox="0 0 500.000000 500.000000"
 preserveAspectRatio="xMidYMid meet">

<g transform="translate(0.000000,500.000000) scale(0.100000,-0.100000)"
fill="#000000" stroke="none">
<path d="M2399 3585 c-36 -7 -98 -27 -137 -44 -63 -26 -93 -44 -185 -111 -19
-14 -20 -13 -8 8 6 12 8 22 2 22 -5 0 -17 3 -25 6 -19 7 -84 -59 -118 -118
-24 -43 -33 -45 -62 -21 -18 15 -17 14 2 -8 l23 -26 -21 -47 c-11 -26 -20 -54
-20 -61 0 -26 -18 -25 -52 2 l-33 27 23 -26 c20 -22 21 -26 7 -32 -9 -3 -27
-6 -40 -6 -48 0 -158 -63 -221 -125 -96 -95 -134 -185 -134 -323 0 -159 70
-294 199 -381 117 -80 68 -76 876 -79 774 -3 760 -4 869 50 120 59 190 141
247 288 9 22 14 76 14 145 0 127 -19 187 -89 288 -50 74 -161 160 -194 152
-17 -4 -22 -2 -16 7 12 19 16 78 5 78 -5 0 -8 -8 -6 -18 6 -31 -9 -46 -33 -33
-11 6 -61 16 -110 23 l-91 12 -17 38 c-9 21 -21 38 -26 38 -4 0 -8 9 -8 19 0
34 -101 145 -165 183 -75 44 -101 54 -193 73 -87 18 -173 18 -263 0z m-49
-110 c15 -18 6 -45 -15 -45 -18 0 -30 24 -21 45 7 19 20 19 36 0z m200 -10 c0
-14 -4 -25 -10 -25 -5 0 -11 -10 -11 -22 l-2 -23 -4 23 c-2 12 -9 22 -14 22
-10 0 -12 33 -2 43 3 4 15 7 25 7 13 0 18 -7 18 -25z m157 -62 c-12 -13 -20
-14 -28 -6 -8 8 -6 11 6 10 10 -1 20 4 22 11 3 7 -4 12 -19 12 -18 0 -20 2 -8
10 10 6 20 5 30 -5 12 -13 12 -17 -3 -32z m-523 22 c6 -18 -16 -30 -39 -21 -8
3 -15 11 -14 18 0 10 2 10 6 1 2 -7 12 -13 20 -13 9 0 13 6 9 15 -3 8 -1 15 3
15 5 0 12 -7 15 -15z m406 -15 c0 -5 -4 -10 -10 -10 -5 0 -10 5 -10 10 0 6 5
10 10 10 6 0 10 -4 10 -10z m300 -84 c29 -65 50 -178 49 -264 -1 -42 -4 -68
-6 -57 -7 27 -35 47 -45 32 -6 -9 -8 -9 -8 1 0 19 -30 14 -31 -5 -1 -16 -2
-15 -6 1 -4 15 -7 16 -14 5 -5 -8 -9 55 -9 159 l0 172 26 0 c20 0 29 -9 44
-44z m-430 -36 c18 -18 20 -32 19 -167 -1 -99 -4 -135 -9 -108 -4 23 -16 45
-29 53 -11 8 -21 24 -21 36 0 11 -11 31 -24 43 -25 24 -40 63 -25 63 5 0 9 -8
9 -18 0 -10 11 -29 25 -42 14 -13 25 -34 25 -47 0 -38 30 -29 31 10 2 83 -4
153 -13 164 -19 24 -58 15 -76 -17 -9 -16 -22 -30 -28 -30 -6 0 -19 -9 -29
-20 -10 -11 -14 -20 -10 -20 5 0 -1 -10 -12 -22 -12 -13 -23 -34 -26 -48 -4
-22 -4 -21 -6 6 0 17 5 37 13 43 8 7 17 23 20 36 3 13 15 27 26 30 11 3 20 11
20 16 0 20 50 59 75 59 14 0 34 -9 45 -20z m178 -14 c17 -19 37 -38 45 -43 20
-12 57 -81 57 -107 0 -13 9 -31 20 -41 11 -10 20 -25 19 -34 0 -13 -2 -13 -6
-1 -3 8 -14 23 -25 34 -10 11 -18 29 -18 41 0 12 -8 30 -18 41 -10 10 -21 27
-25 37 -3 9 -18 22 -32 27 -14 5 -25 14 -25 20 0 38 -72 54 -90 21 -5 -11 -10
-58 -10 -105 0 -79 2 -86 20 -86 15 0 20 7 20 28 0 16 8 32 19 39 11 7 21 22
23 34 2 12 9 24 16 27 21 7 13 -16 -18 -51 -16 -19 -30 -44 -30 -56 0 -14 -9
-25 -24 -31 -13 -5 -26 -17 -29 -27 -3 -10 -5 39 -6 109 -1 120 0 128 21 142
35 24 62 19 96 -18z m-626 -209 c-8 -30 -7 -33 13 -35 28 -2 35 31 35 171 0
63 4 96 10 92 6 -4 10 -60 10 -136 0 -122 1 -129 20 -129 19 0 20 7 20 130 0
148 19 184 22 43 2 -107 5 -165 8 -178 4 -20 -13 -55 -26 -55 -8 0 -14 4 -14
9 0 4 -8 7 -17 6 -45 -4 -87 -38 -78 -63 3 -7 1 -11 -4 -8 -5 3 -14 20 -20 38
-9 26 -9 30 1 20 20 -20 28 -14 28 19 0 23 -4 30 -15 26 -24 -10 -27 8 -15
115 17 168 25 187 28 70 1 -57 -1 -117 -6 -135z m197 108 c15 -148 15 -170 -2
-156 -8 6 -17 8 -20 4 -4 -3 -7 58 -7 137 0 81 4 140 9 135 4 -6 13 -59 20
-120z m221 45 c0 -5 -7 -10 -15 -10 -8 0 -15 5 -15 10 0 6 7 10 15 10 8 0 15
-4 15 -10z m160 0 c0 -5 -4 -10 -10 -10 -5 0 -10 5 -10 10 0 6 5 10 10 10 6 0
10 -4 10 -10z m624 -76 c10 -25 7 -31 -15 -37 -22 -6 -35 13 -25 38 7 20 32
19 40 -1z m-866 -25 c3 -19 1 -22 -9 -12 -17 17 -21 45 -6 40 7 -2 14 -14 15
-28z m329 14 c2 -6 -3 -13 -12 -16 -10 -5 -15 0 -15 14 0 21 21 22 27 2z m462
8 c19 -12 6 -41 -19 -41 -15 0 -20 7 -20 25 0 26 14 31 39 16z m-489 -45 c0
-2 -8 -10 -17 -17 -16 -13 -17 -12 -4 4 13 16 21 21 21 13z m630 -51 c-6 -16
-8 -35 -6 -42 3 -8 2 -11 -4 -8 -5 3 -17 -7 -27 -22 -10 -15 -23 -34 -30 -41
-7 -7 -13 -21 -13 -30 0 -9 -17 -31 -38 -48 -51 -41 -72 -53 -48 -26 22 25 15
42 -9 22 -33 -27 -22 -2 20 45 35 39 47 47 54 36 7 -11 15 -5 38 26 16 22 37
59 47 82 21 46 33 50 16 6z m-970 10 c0 -8 -8 -15 -17 -14 -13 0 -14 2 -4 6
11 5 11 7 0 14 -11 7 -10 9 4 9 9 0 17 -7 17 -15z m100 -10 c13 -14 19 -25 14
-25 -8 1 -50 50 -41 50 2 0 14 -11 27 -25z m289 2 c-29 -28 -35 -27 -17 2 7
12 19 21 27 21 9 0 6 -8 -10 -23z m-89 10 c0 -2 -10 -12 -22 -23 l-23 -19 19
23 c18 21 26 27 26 19z m-265 -45 c-3 -3 -11 0 -18 7 -9 10 -8 11 6 5 10 -3
15 -9 12 -12z m728 3 c1 -5 -6 -11 -15 -13 -11 -2 -18 3 -18 13 0 17 30 18 33
0z m-417 -19 c0 -14 -6 -22 -13 -19 -7 3 -13 7 -13 9 0 4 23 33 26 34 1 0 1
-11 0 -24z m-461 -56 c3 -5 1 -10 -4 -10 -6 0 -11 5 -11 10 0 6 2 10 4 10 3 0
8 -4 11 -10z m-25 -35 c-7 -9 -15 -13 -17 -11 -7 7 7 26 19 26 6 0 6 -6 -2
-15z m1210 -2 c0 -28 -15 -44 -33 -37 -17 6 -23 35 -10 47 13 14 43 7 43 -10z
m-340 -27 c0 -15 -24 -28 -34 -19 -13 14 -5 33 14 33 11 0 20 -6 20 -14z m-64
-131 c-40 -35 -69 -48 -46 -20 7 8 18 15 25 15 6 0 20 9 30 20 10 11 21 20 24
20 3 -1 -12 -16 -33 -35z m-796 5 c0 -5 -5 -10 -11 -10 -5 0 -7 5 -4 10 3 6 8
10 11 10 2 0 4 -4 4 -10z m-459 -51 c-12 -19 -21 -44 -21 -55 0 -29 -27 -53
-35 -31 -4 8 11 39 32 70 41 60 57 71 24 16z m1084 10 c0 -7 -8 -15 -17 -17
-18 -3 -25 18 -11 32 10 10 28 1 28 -15z m427 -71 c-15 -15 -26 -4 -18 18 5
13 9 15 18 6 9 -9 9 -15 0 -24z m-162 8 c0 -2 -7 -9 -15 -16 -12 -10 -15 -10
-15 4 0 9 7 16 15 16 8 0 15 -2 15 -4z m-1304 -17 c10 -17 -13 -36 -27 -22
-12 12 -4 33 11 33 5 0 12 -5 16 -11z m1054 0 c-30 -20 -172 -90 -167 -82 3 5
25 19 49 31 24 12 54 31 68 42 14 11 34 20 45 20 17 0 18 -2 5 -11z m210 -19
c0 -5 -5 -10 -11 -10 -5 0 -7 5 -4 10 3 6 8 10 11 10 2 0 4 -4 4 -10z m-1220
-45 c0 -8 -4 -15 -10 -15 -5 0 -10 7 -10 15 0 8 5 15 10 15 6 0 10 -7 10 -15z
m1296 -56 c9 -16 -21 -43 -41 -36 -13 5 -14 11 -5 27 12 22 35 26 46 9z m-669
-55 c7 -19 -4 -31 -39 -39 -24 -6 -28 -4 -28 13 0 35 55 57 67 26z m-538 -38
c9 -11 8 -15 -5 -20 -20 -8 -39 7 -30 23 10 15 21 14 35 -3z m1301 -1 c0 -8
-7 -15 -15 -15 -8 0 -15 7 -15 15 0 8 7 15 15 15 8 0 15 -7 15 -15z m-586 -20
c-6 -16 -44 -21 -44 -7 0 14 12 22 31 22 12 0 16 -5 13 -15z m164 -57 c-2 -6
-14 -18 -26 -26 -19 -13 -22 -12 -28 3 -4 10 -1 21 7 26 20 13 51 11 47 -3z"/>
<path d="M2320 3454 c0 -17 22 -14 28 4 2 7 -3 12 -12 12 -9 0 -16 -7 -16 -16z"/>
<path d="M2510 3465 c0 -8 7 -15 15 -15 8 0 15 7 15 15 0 8 -7 15 -15 15 -8 0
-15 -7 -15 -15z"/>
<path d="M2125 3020 c-3 -5 -1 -10 4 -10 6 0 11 5 11 10 0 6 -2 10 -4 10 -3 0
-8 -4 -11 -10z"/>
<path d="M2030 2996 c0 -9 5 -16 10 -16 6 0 10 4 10 9 0 6 -4 13 -10 16 -5 3
-10 -1 -10 -9z"/>
<path d="M3075 3401 c-3 -5 -2 -12 3 -15 5 -3 9 1 9 9 0 17 -3 19 -12 6z"/>
<path d="M1798 3373 c7 -3 16 -2 19 1 4 3 -2 6 -13 5 -11 0 -14 -3 -6 -6z"/>
<path d="M3202 3250 c0 -14 2 -19 5 -12 2 6 2 18 0 25 -3 6 -5 1 -5 -13z"/>
<path d="M1650 3230 c0 -5 5 -10 11 -10 5 0 7 5 4 10 -3 6 -8 10 -11 10 -2 0
-4 -4 -4 -10z"/>
<path d="M1650 1790 l0 -150 30 0 30 0 0 118 1 117 114 -117 c109 -112 117
-118 155 -118 l40 0 0 150 0 150 -30 0 -30 0 -2 -87 c0 -49 -2 -92 -3 -98 -2
-5 -3 -16 -4 -24 0 -7 -49 37 -107 98 -104 108 -108 111 -150 111 l-44 0 0
-150z"/>
<path d="M2100 1790 l0 -150 30 0 30 0 0 150 0 150 -30 0 -30 0 0 -150z"/>
<path d="M2240 1790 l0 -150 149 0 c127 0 152 3 170 18 29 23 33 92 6 122 -14
16 -16 23 -7 32 17 17 15 80 -4 106 -14 21 -21 22 -165 22 l-149 0 0 -150z
m265 65 l0 -30 -102 -3 -103 -3 0 36 0 36 103 -3 102 -3 0 -30z m10 -125 l0
-35 -107 -3 -108 -3 0 41 0 41 108 -3 107 -3 0 -35z"/>
<path d="M2776 1918 c-17 -28 -83 -144 -125 -220 l-32 -58 38 0 c37 0 39 2 76
78 49 100 89 172 97 172 9 0 69 -127 63 -134 -4 -3 -30 -6 -58 -6 -46 0 -53
-3 -63 -25 l-12 -25 89 0 89 0 12 -30 c11 -26 18 -30 51 -30 38 0 39 1 26 23
-8 12 -47 79 -86 150 l-72 127 -40 0 c-29 0 -42 -5 -53 -22z"/>
<path d="M3080 1790 l0 -150 30 0 c31 0 31 -1 34 75 1 17 9 20 56 23 54 3 56
2 105 -48 43 -43 54 -50 89 -50 l40 0 -48 49 c-47 48 -48 49 -25 56 48 15 59
34 59 100 0 93 -4 95 -188 95 l-152 0 0 -150z m275 50 l0 -45 -102 -3 -102 -3
-7 36 c-11 63 -6 66 108 63 l103 -3 0 -45z"/>
<path d="M1647 1543 c-13 -12 -7 -80 7 -92 8 -7 34 -11 58 -9 34 2 44 7 46 23
3 16 1 18 -9 8 -7 -7 -30 -13 -51 -13 -38 0 -38 0 -38 40 0 40 0 40 38 40 21
0 43 -5 50 -12 9 -9 12 -8 12 5 0 14 -10 17 -53 17 -30 0 -57 -3 -60 -7z"/>
<path d="M1800 1495 l0 -55 50 0 c28 0 50 5 50 10 0 6 -18 10 -40 10 l-40 0 0
45 c0 25 -4 45 -10 45 -5 0 -10 -25 -10 -55z"/>
<path d="M1937 1544 c-12 -12 -8 -79 5 -92 14 -14 86 -16 106 -3 9 5 12 24 10
52 l-3 44 -55 3 c-31 2 -59 0 -63 -4z m109 -19 c4 -8 3 -27 0 -41 -6 -23 -11
-25 -49 -22 -35 3 -43 7 -45 26 -6 41 5 52 48 52 27 0 43 -5 46 -15z"/>
<path d="M2100 1507 c0 -51 13 -67 56 -67 57 0 64 7 62 64 l-1 51 -6 -45 c-6
-45 -6 -45 -48 -48 l-43 -3 0 45 c0 25 -4 46 -10 46 -5 0 -10 -19 -10 -43z"/>
<path d="M2260 1500 c0 -45 2 -50 23 -51 12 0 30 -2 41 -4 10 -2 29 0 42 5 19
7 24 17 24 43 0 46 -15 57 -77 57 l-53 0 0 -50z m110 20 c18 -34 -4 -60 -50
-60 -40 0 -40 0 -40 40 0 40 0 40 40 40 29 0 42 -5 50 -20z"/>
<path d="M2500 1526 c0 -26 16 -36 61 -36 20 0 29 -5 29 -16 0 -14 -9 -16 -50
-12 -55 6 -59 -8 -6 -18 48 -9 76 3 76 31 0 26 -17 35 -66 35 -25 0 -34 4 -34
16 0 14 9 16 50 12 27 -3 47 -1 44 4 -3 4 -27 8 -55 8 -45 0 -49 -2 -49 -24z"/>
<path d="M2660 1543 c0 -5 10 -18 21 -29 12 -10 25 -28 30 -39 7 -19 8 -19 8
-1 1 11 13 33 28 48 15 15 21 28 15 28 -7 0 -17 -9 -24 -20 -16 -25 -26 -25
-55 2 -13 12 -23 17 -23 11z"/>
<path d="M2813 1534 c-9 -23 23 -44 64 -44 24 0 33 -5 33 -16 0 -14 -9 -16
-52 -12 -46 5 -49 4 -33 -8 24 -18 66 -18 91 0 30 23 7 50 -45 54 -29 2 -41 8
-41 19 0 13 9 15 50 11 27 -3 47 -1 44 4 -3 4 -28 8 -55 8 -37 0 -51 -4 -56
-16z"/>
<path d="M2985 1541 c25 -5 31 -12 36 -41 l6 -35 2 37 c1 32 5 37 29 41 15 2
-2 4 -38 4 -43 1 -55 -2 -35 -6z"/>
<path d="M3120 1501 c0 -28 3 -51 8 -53 4 -2 30 -1 57 3 l50 6 -47 1 c-35 2
-48 6 -48 17 0 11 11 15 39 15 22 0 43 5 46 10 4 6 -12 10 -39 10 -33 0 -46 4
-46 14 0 11 14 16 48 19 46 3 46 3 -10 5 l-58 2 0 -49z"/>
<path d="M3270 1498 c0 -55 16 -57 22 -3 l4 30 23 -37 c13 -21 27 -38 31 -38
5 0 19 17 32 38 l23 37 3 -37 c5 -56 22 -46 22 12 0 38 -4 50 -15 50 -8 0 -15
-4 -15 -8 0 -4 -11 -23 -24 -41 l-24 -33 -28 41 c-37 57 -54 54 -54 -11z"/>
<path d="M1640 1165 c0 -13 53 -15 468 -15 606 0 1322 11 1322 21 0 4 -403 8
-895 8 -800 2 -895 0 -895 -14z"/>
</g>
</svg>
